<svg viewBox="0 0 450 109" fill="none" xmlns="http://www.w3.org/2000/svg">
    <path fill-rule="evenodd" clip-rule="evenodd" d="M23.1672 1.7008C4.52216 6.83669 -3.56483 25.175 4.9637 42.9793C8.43099 50.2193 14.889 54.2711 31.6877 59.7456C51.3961 66.17 54.1825 68.0747 56.5524 76.7474C59.9857 89.3106 51.7415 97.3421 35.3683 97.3841C22.0899 97.4182 16.2917 93.4716 12.9566 82.1267C12.3308 80.0006 0.363022 79.4626 0.363022 81.5597C0.363022 113.71 60.9639 119.606 68.4952 88.1894C73.3682 67.8613 65.3513 57.3971 38.41 48.9188C18.5385 42.6657 14.881 39.4565 14.881 28.273C14.881 17.5403 19.6318 12.9184 31.9931 11.6259C48.7548 9.87254 59.436 18.1044 59.436 32.7737C59.436 40.8222 62.4177 42.4513 78.2873 43.0685C89.6843 43.5124 90.6996 43.7117 91.5466 45.6795C92.3396 47.5231 99.7348 78.9045 103.619 96.9052C105.199 104.231 108.009 107.425 112.875 107.425C120.9 107.425 120.168 109.189 132.118 61.0862C137.559 39.181 142.243 21.2685 142.526 21.2805C142.808 21.2915 147.545 39.6639 153.052 62.1092C164.108 107.173 164.21 107.425 171.418 107.425C178.644 107.425 178.903 106.862 186.111 75.3637C199.571 16.5494 198.605 20.0892 202.176 16.5003C206.118 12.5387 211.813 12.0287 215.93 15.2699L218.504 17.2958L218.819 55.5976L219.133 93.8994L221.636 98.357C227.27 108.389 246.956 110.951 256.52 102.897C262.321 98.0134 263.63 93.4075 274.176 40.7971C277.949 21.9819 278.5 19.7135 279.143 20.3648C279.358 20.5812 283.417 37.2152 288.164 57.329C300.469 109.467 299.665 107.425 307.884 107.425C316.261 107.425 315.605 109.026 326.752 61.3367C331.839 39.5698 336.298 21.4368 336.658 21.0421C337.019 20.6463 339.044 28.7619 341.159 39.0768C349.521 79.8594 347.544 76.7334 365.281 77.2003C379.233 77.567 379.815 77.8866 379.842 85.1977C379.941 112.454 434.686 118.293 445.884 92.2422C447.8 87.7857 448.079 85.6826 447.73 78.3515C446.961 62.2655 442.13 57.6616 417.146 49.2033C396.878 42.3411 392.776 38.656 392.87 27.3963C393.037 7.44486 432.574 5.36486 436.519 25.1009C437.15 28.256 437.186 28.273 443.406 28.273H449.66L448.795 23.6411C445.738 7.26853 429.34 -1.60257 407.637 1.37717C389.542 3.86196 380.838 13.4134 380.848 30.7778C380.858 46.6975 387.185 52.8173 411.871 60.7866C431.777 67.213 436.915 72.1565 435.564 83.5795C434.335 93.9605 428.4 97.8691 413.874 97.8631C398.677 97.8571 390.845 91.0309 390.845 77.7894C390.845 68.9383 387.743 67.0808 372.042 66.5327C357.083 66.0097 359.451 69.7188 351.328 34.0892C344.01 1.99036 343.829 1.61864 335.937 2.50936C329.411 3.24477 329.621 2.71576 318.787 45.8068C313.247 67.8492 308.435 86.5603 308.096 87.3869C307.757 88.2135 302.814 70.2008 297.112 47.3588C286.013 2.90412 286.15 3.25379 279.549 2.50936C271.38 1.58758 271.658 0.934322 261.731 44.3219C249.586 97.3992 249.658 97.2278 239.914 96.1287C231.298 95.1569 231.649 96.8291 231.649 56.7218C231.649 17.3109 231.177 13.0076 226.293 7.8246C219.267 0.370234 200.777 -0.0656056 193.259 7.0461C187.243 12.7381 186.105 16.9993 173.541 80.8743C172.891 84.1807 172.055 87.443 171.685 88.1243C170.874 89.6132 169.696 85.0083 155.025 22.9788C150.564 4.11545 149.428 2.2228 142.577 2.2228C134.01 2.2228 134.55 0.949348 123.914 46.3077C113.968 88.7174 113.503 90.5169 112.895 88.8898C112.69 88.3387 110.275 76.8917 107.529 63.4528C100.996 31.4722 101.608 32.2807 83.9723 32.2807C72.4741 32.2807 70.4496 31.389 70.4496 26.3232C70.4496 7.78151 46.456 -4.71356 23.1672 1.7008Z" fill="#E86434"/>
    </svg>